<svg id="Layer_1" data-name="Layer 1" xmlns="http://www.w3.org/2000/svg" viewBox="0 0 2834.65 1417.32"><defs><style>.cls-1{fill:#d83754;}.cls-2{fill:#fff;}</style></defs><title>ACA Logo 100x50</title><rect class="cls-1" width="2834.65" height="1417.32"/><path class="cls-2" d="M1232.372,476.431Q1144.081,568.9,1144.081,722.2q0,139.685,81.483,226.439t210.625,86.754a413.039,413.039,0,0,0,159.451-31.627V961.594q-68.968,33.83-155.937,33.823-108.945,0-179.877-74.455T1188.885,717.8q0-133.528,74.235-213.92T1455.955,423.5a336.44,336.44,0,0,1,139.685,29.87V407.248a416.14,416.14,0,0,0-138.806-23.281Q1320.659,383.967,1232.372,476.431Z"/><polygon class="cls-2" points="1959.787 394.509 1918.496 394.509 1680.856 1024.408 1728.736 1024.408 1800.774 828.498 2073.994 828.498 2146.033 1024.408 2194.791 1024.408 1959.787 394.509"/><polygon class="cls-2" points="860.38 394.509 622.74 1024.408 670.62 1024.408 742.658 828.498 1015.878 828.498 1087.917 1024.408 1136.675 1024.408 901.671 394.509 860.38 394.509"/></svg>